<?xml version="1.0" standalone="no"?>
<!DOCTYPE svg PUBLIC "-//W3C//DTD SVG 20010904//EN"
 "http://www.w3.org/TR/2001/REC-SVG-20010904/DTD/svg10.dtd">
<svg version="1.0" xmlns="http://www.w3.org/2000/svg"
 width="429.000000pt" height="332.000000pt" viewBox="0 0 429.000000 332.000000"
 preserveAspectRatio="xMidYMid meet">

<g transform="translate(0.000000,332.000000) scale(0.100000,-0.100000)"
fill="#000000" stroke="none">
<path d="M1805 2551 c-66 -27 -79 -105 -27 -152 35 -32 57 -35 97 -17 27 12
55 54 55 83 0 29 -28 71 -55 83 -30 14 -42 14 -70 3z m65 -51 c11 -11 20 -27
20 -35 0 -18 -35 -55 -53 -55 -49 0 -69 82 -24 100 32 13 35 12 57 -10z"/>
<path d="M1990 2546 c-10 -13 -10 -17 1 -21 8 -2 123 -6 257 -7 228 -3 245 -4
258 -22 11 -16 14 -67 14 -247 0 -156 3 -230 11 -235 25 -15 29 31 27 253 l-3
233 -28 27 -27 28 -249 3 c-213 3 -250 1 -261 -12z"/>
<path d="M1719 2311 l-29 -29 0 -131 c0 -84 4 -132 11 -137 22 -13 29 22 29
143 0 86 4 124 13 130 6 4 113 10 237 13 191 4 225 7 225 20 0 13 -33 15 -228
18 l-228 2 -30 -29z"/>
<path d="M1907 2223 c-4 -3 -7 -125 -7 -270 0 -255 -1 -263 -20 -263 -18 0
-20 8 -22 147 -3 131 -5 148 -20 151 -16 3 -18 -11 -20 -145 -3 -145 -3 -148
-25 -151 l-23 -3 0 161 c0 148 -1 161 -17 158 -16 -3 -18 -20 -21 -160 -2
-148 -4 -156 -23 -161 -12 -3 -19 -12 -17 -19 4 -10 90 -13 449 -13 415 0 444
1 447 18 3 16 -17 17 -322 17 l-326 0 0 270 c0 218 -3 270 -13 270 -8 0 -17
-3 -20 -7z"/>
<path d="M2315 2020 c-9 -15 4 -30 26 -30 12 0 23 -10 29 -25 9 -24 12 -25
115 -25 96 0 106 2 103 18 -3 14 -17 17 -87 20 -75 3 -86 5 -103 27 -20 26
-71 35 -83 15z"/>
<path d="M2015 1970 c-15 -24 12 -30 146 -30 128 0 140 2 137 18 -3 15 -19 17
-140 20 -86 2 -139 -1 -143 -8z"/>
<path d="M1320 1230 l0 -130 30 0 c27 0 30 3 31 33 l1 32 14 -32 c12 -28 19
-33 49 -33 l35 0 -16 38 c-9 20 -18 42 -20 48 -3 6 4 32 15 57 l20 47 -33 0
c-29 0 -36 -5 -47 -32 -13 -33 -14 -32 -17 35 -3 67 -3 67 -32 67 l-30 0 0
-130z"/>
<path d="M1494 1345 c-10 -24 19 -49 45 -40 16 5 21 13 19 28 -4 28 -55 37
-64 12z"/>
<path d="M2113 1348 c-50 -13 -70 -66 -65 -166 3 -50 40 -82 96 -82 50 0 58 6
49 38 -4 17 -13 22 -39 22 -30 0 -34 3 -40 37 -10 55 5 87 44 91 19 2 33 9 34
18 0 8 1 19 2 26 1 17 -44 26 -81 16z"/>
<path d="M2222 1233 l3 -128 34 -3 34 -3 -6 38 c-4 21 -7 80 -7 131 l0 92 -30
0 -31 0 3 -127z"/>
<path d="M750 1224 l0 -126 71 4 c55 3 74 8 85 23 18 24 18 66 0 90 -12 16
-12 22 1 41 17 27 8 71 -17 84 -10 6 -46 10 -79 10 l-61 0 0 -126z m94 61 c7
-18 -2 -45 -15 -45 -5 0 -12 7 -15 15 -7 18 2 45 15 45 5 0 11 -7 15 -15z m1
-111 c0 -19 -5 -29 -15 -29 -16 0 -25 28 -16 51 10 25 31 10 31 -22z"/>
<path d="M984 1290 c-45 -18 -56 -129 -18 -171 21 -23 81 -25 111 -4 45 32 36
157 -13 175 -30 12 -52 12 -80 0z m56 -95 c0 -33 -4 -45 -15 -45 -11 0 -15 12
-15 45 0 33 4 45 15 45 11 0 15 -12 15 -45z"/>
<path d="M1173 1290 c-31 -13 -43 -41 -43 -99 0 -64 23 -91 78 -91 20 0 42 4
48 8 36 24 47 125 17 161 -21 24 -68 35 -100 21z m55 -85 c1 -17 -2 -36 -7
-44 -15 -23 -31 -2 -31 40 0 33 3 40 18 37 11 -2 18 -14 20 -33z"/>
<path d="M1687 1293 c-4 -3 -27 -5 -52 -5 l-45 2 0 -95 0 -95 30 0 c29 0 29 0
32 67 4 93 26 97 30 6 l3 -68 33 -3 32 -3 0 90 c0 79 -2 92 -19 101 -23 12
-35 13 -44 3z"/>
<path d="M1795 1275 c-28 -27 -30 -42 -14 -79 9 -18 9 -29 1 -38 -6 -8 -8 -32
-5 -56 7 -51 29 -67 85 -59 52 7 70 23 66 61 -3 29 -6 31 -50 34 -51 3 -67 22
-20 22 40 0 64 21 66 57 1 18 5 35 9 39 4 4 7 16 7 26 0 15 -8 18 -60 18 -51
0 -65 -4 -85 -25z m72 -59 c-4 -9 -11 -16 -17 -16 -11 0 -14 33 -3 44 11 10
26 -11 20 -28z m13 -126 c0 -5 -11 -10 -25 -10 -14 0 -25 5 -25 10 0 6 11 10
25 10 14 0 25 -4 25 -10z"/>
<path d="M2340 1291 c-14 -4 -25 -12 -24 -19 4 -43 3 -43 40 -36 48 9 43 -14
-6 -30 -29 -9 -36 -16 -38 -44 -5 -51 9 -60 86 -59 65 2 67 3 64 27 -2 14 -4
51 -6 84 -3 80 -33 100 -116 77z m53 -136 c-3 -8 -9 -15 -14 -15 -10 0 -12 24
-3 33 11 11 24 -3 17 -18z"/>
<path d="M2502 1284 c-41 -29 -26 -84 34 -121 17 -11 16 -12 -13 -12 -28 -1
-33 -5 -33 -26 0 -23 4 -25 44 -25 52 0 76 19 76 59 0 28 -19 51 -55 66 -17 8
-16 9 11 13 21 2 34 10 37 23 10 37 -59 53 -101 23z"/>
<path d="M2641 1281 c-11 -11 -21 -32 -21 -46 0 -25 34 -65 57 -65 7 0 13 -4
13 -10 0 -5 -13 -10 -30 -10 -25 0 -30 -4 -30 -25 0 -23 3 -25 48 -25 56 0 72
12 72 55 0 32 -18 55 -55 70 -17 8 -16 10 12 13 21 2 34 10 38 23 9 26 5 30
-43 36 -32 4 -44 1 -61 -16z"/>
<path d="M2818 1293 l-48 -4 0 -95 0 -95 33 3 32 3 3 64 c3 53 6 64 23 68 13
4 19 14 19 34 0 16 -3 28 -7 27 -5 -1 -29 -3 -55 -5z"/>
<path d="M2934 1290 c-45 -18 -56 -129 -18 -171 21 -23 81 -25 111 -4 45 32
36 157 -13 175 -30 12 -52 12 -80 0z m56 -95 c0 -33 -4 -45 -15 -45 -11 0 -15
12 -15 45 0 33 4 45 15 45 11 0 15 -12 15 -45z"/>
<path d="M3123 1290 c-31 -13 -43 -41 -43 -99 0 -64 23 -91 78 -91 20 0 42 4
48 8 36 24 47 125 17 161 -21 24 -68 35 -100 21z m55 -85 c1 -17 -2 -36 -7
-44 -15 -23 -31 -2 -31 40 0 33 3 40 18 37 11 -2 18 -14 20 -33z"/>
<path d="M3367 1293 c-4 -3 -27 -5 -52 -5 l-45 2 0 -95 0 -95 30 0 c29 0 29 0
32 67 2 42 8 68 16 71 9 3 12 -15 12 -67 l0 -71 35 0 34 0 3 65 c4 87 22 88
26 3 3 -68 3 -68 32 -68 l30 0 0 89 c0 104 -11 123 -62 103 -20 -7 -37 -8 -49
-2 -21 12 -33 13 -42 3z"/>
<path d="M1494 1277 c-3 -8 -4 -49 -2 -93 l3 -79 30 0 30 0 3 93 3 92 -31 0
c-17 0 -33 -6 -36 -13z"/>
</g>
</svg>
