<?xml version="1.0" standalone="no"?>
<!DOCTYPE svg PUBLIC "-//W3C//DTD SVG 20010904//EN"
 "http://www.w3.org/TR/2001/REC-SVG-20010904/DTD/svg10.dtd">
<svg version="1.0" xmlns="http://www.w3.org/2000/svg"
 width="1217.000000pt" height="751.000000pt" viewBox="0 0 1217.000000 751.000000"
 preserveAspectRatio="xMidYMid meet">

<g transform="translate(0.000000,751.000000) scale(0.100000,-0.100000)"
fill="#000000" stroke="none">
<path d="M2266 6843 c-3 -4 -6 -15 -6 -25 0 -11 -11 -34 -25 -52 -14 -18 -25
-40 -25 -49 0 -49 25 -47 -524 -48 -281 -1 -521 -4 -534 -7 l-23 -7 2 -615 c1
-338 3 -655 4 -705 1 -49 5 -875 9 -1835 4 -960 9 -2025 11 -2367 l3 -623 -68
0 c-78 0 -80 -2 -80 -83 0 -64 6 -72 53 -81 20 -4 37 -12 37 -18 0 -9 3 -9 12
0 7 7 39 12 72 12 l59 0 -19 -22 -19 -22 36 22 c20 12 45 22 55 22 17 -1 16
-3 -6 -20 -70 -53 -53 -49 38 8 14 9 34 12 53 8 17 -3 40 -1 51 5 11 6 26 8
35 5 13 -5 13 -9 2 -22 -10 -12 -4 -10 21 4 33 21 57 21 44 0 -4 -5 4 -4 17 2
18 10 24 10 27 1 3 -9 7 -9 18 0 8 6 39 13 70 15 45 2 55 0 50 -12 -7 -18 -1
-18 31 3 18 12 28 14 30 6 3 -8 12 -9 34 -1 22 8 34 7 42 -1 8 -8 7 -11 -3
-11 -7 0 -10 -3 -7 -6 4 -4 12 -2 19 3 21 17 61 23 74 12 9 -7 19 -7 33 0 12
7 22 7 26 1 4 -6 15 -6 32 1 17 6 30 6 36 0 6 -6 19 -6 35 0 16 6 29 6 35 0 6
-6 19 -6 33 -1 15 6 24 5 26 -2 3 -8 11 -7 27 1 15 9 26 10 33 3 7 -7 20 -7
40 0 36 13 48 3 22 -17 -28 -21 -7 -18 24 3 20 14 46 19 95 19 68 0 77 -3 55
-26 -7 -7 7 -3 32 8 75 34 155 21 117 -19 -7 -7 11 1 40 16 39 22 55 26 64 17
9 -9 4 -15 -19 -27 -17 -9 -34 -21 -37 -27 -4 -6 24 7 63 28 70 38 108 39 62
2 -17 -14 -10 -12 22 6 28 16 49 22 52 16 5 -7 15 -7 33 0 29 11 67 3 57 -13
-4 -5 4 -4 17 3 27 15 111 19 120 6 3 -4 18 -3 34 3 32 12 60 6 50 -11 -4 -6
7 -3 25 6 35 18 76 16 72 -3 -1 -9 7 -8 30 4 24 12 36 14 49 6 11 -7 28 -8 47
-3 18 6 34 5 39 0 6 -6 20 -6 38 1 16 6 32 7 39 1 6 -4 20 -5 31 0 29 11 73
11 77 -2 2 -7 12 -7 32 1 41 15 46 2 11 -26 -27 -22 -24 -22 29 6 64 33 91 38
82 15 -7 -19 -6 -19 33 1 17 9 39 13 48 10 13 -5 7 -13 -25 -37 -62 -45 -51
-44 20 1 57 37 98 51 98 32 0 -4 -6 -14 -12 -20 -9 -9 -3 -8 17 2 45 21 75 29
75 18 0 -6 -3 -12 -7 -15 -5 -2 -1 -2 7 1 39 12 73 14 66 4 -4 -7 8 -5 29 4
46 19 66 8 34 -18 -17 -14 -10 -12 25 6 57 30 60 31 52 11 -7 -18 -7 -18 37 0
20 8 38 11 41 6 3 -5 22 -5 42 -1 29 7 34 6 30 -6 -7 -18 4 -17 28 1 11 8 31
15 45 15 l24 0 -24 -26 -24 -27 29 19 c16 10 43 19 60 21 17 1 60 4 96 7 37 3
69 1 76 -5 8 -6 20 -7 31 -2 22 11 123 11 140 0 6 -4 23 -3 37 3 16 6 27 6 31
-1 4 -5 10 -7 15 -4 17 10 280 14 286 4 3 -5 10 -6 16 -3 16 10 252 12 258 3
3 -5 22 -3 42 3 41 12 83 4 58 -12 -23 -15 -7 -12 35 6 42 17 60 10 31 -12
-25 -18 -13 -18 23 0 29 16 185 20 176 6 -3 -5 13 -1 35 7 44 18 66 10 36 -13
-25 -18 -8 -18 24 1 30 17 64 20 54 4 -4 -8 -1 -8 13 -1 10 6 53 10 94 10 42
-1 81 2 87 6 6 3 13 2 16 -3 3 -5 21 -6 40 -1 19 4 50 4 68 1 18 -4 46 -3 61
2 18 6 32 6 38 0 6 -6 49 -8 97 -6 l87 3 -25 -21 c-20 -17 -16 -16 24 5 32 17
53 23 59 17 6 -6 23 -7 38 -4 18 3 29 1 29 -6 0 -6 -5 -11 -12 -11 -6 0 -9 -3
-5 -6 3 -3 16 1 29 10 26 18 83 22 72 5 -4 -8 -1 -8 12 -1 26 13 136 13 128 0
-4 -6 1 -6 14 1 11 6 40 11 64 11 l43 0 -25 -21 -25 -20 40 19 c32 16 62 20
153 20 102 0 112 -1 100 -15 -11 -14 -9 -14 19 0 18 10 45 17 60 17 26 -1 24
-3 -19 -26 -27 -13 -48 -26 -48 -29 0 -5 102 36 115 47 5 4 18 8 29 8 20 0 20
0 0 -15 -24 -18 -5 -20 21 -1 23 16 108 19 98 3 -4 -6 -1 -7 6 -3 12 8 130 19
181 18 98 -3 116 -5 121 -14 4 -7 13 -6 27 1 26 14 72 14 72 1 0 -7 6 -7 19 0
25 13 54 13 46 0 -4 -7 2 -7 18 -1 14 5 93 9 176 9 132 -1 149 -3 138 -16 -10
-12 -6 -12 20 1 37 19 68 22 57 6 -5 -8 -1 -8 14 0 26 14 72 14 72 0 0 -6 5
-7 13 -2 18 12 348 12 340 0 -3 -5 2 -5 13 1 24 13 735 12 727 -1 -3 -5 3 -5
13 1 27 14 146 14 138 0 -5 -7 -2 -8 6 -3 7 4 38 9 67 11 50 3 53 2 41 -13
-12 -15 -11 -15 10 -4 32 17 157 28 148 13 -4 -7 -3 -12 3 -12 5 0 13 4 16 10
3 5 18 10 32 10 23 0 24 -2 12 -17 -13 -17 -12 -17 6 -2 20 16 85 24 85 11 0
-4 -15 -17 -33 -29 -23 -17 -27 -23 -14 -23 10 0 32 14 49 30 29 30 56 41 42
18 -5 -8 -2 -9 12 -3 10 4 37 10 59 12 42 4 41 2 -12 -35 -10 -7 5 -2 32 11
38 18 70 24 133 25 53 2 82 -1 82 -8 0 -6 5 -8 12 -4 20 13 102 23 113 14 6
-4 30 -5 55 -1 25 3 68 4 95 1 l50 -5 -47 -28 c-27 -15 -48 -30 -48 -33 0 -6
4 -3 65 35 22 13 58 28 80 32 43 8 88 2 80 -11 -3 -5 8 -3 25 3 26 10 30 17
30 47 0 19 3 58 6 87 l7 52 -59 3 -59 3 -6 825 c-4 454 -10 1318 -13 1920 -17
2644 -24 3398 -30 3408 -4 7 -193 8 -586 5 l-580 -5 0 43 c0 36 -7 51 -35 82
-20 20 -39 37 -43 37 -19 -1 -74 -84 -79 -121 l-6 -39 -1186 0 c-652 -1 -1591
-3 -2086 -5 -495 -2 -1601 -5 -2459 -7 l-1559 -3 -12 49 c-7 27 -20 55 -29 61
-9 7 -16 24 -16 38 0 24 -21 42 -34 30z m7429 -122 c-4 -23 -11 -41 -16 -41
-13 0 -11 64 3 78 17 17 21 8 13 -37z m95 15 c0 -44 -10 -56 -46 -56 -27 0
-34 4 -34 20 0 11 7 20 15 20 8 0 15 5 15 10 0 17 18 11 23 -7 3 -11 5 -7 6
10 1 33 21 36 21 3z m-7530 5 c0 -25 -14 -71 -21 -71 -10 0 -12 41 -3 64 6 17
24 22 24 7z m47 -33 c-3 -7 -5 -2 -5 12 0 14 2 19 5 13 2 -7 2 -19 0 -25z
m7997 -64 c9 -4 49 -4 89 -1 51 5 66 4 52 -3 -17 -9 -17 -10 5 -4 54 13 140
16 140 5 0 -7 8 -8 26 -1 31 12 304 13 304 2 0 -5 -9 -17 -21 -28 -18 -17 -42
-20 -193 -24 -94 -3 -173 -4 -176 -2 -3 2 6 12 20 23 20 15 14 14 -30 -6 -37
-17 -73 -25 -110 -25 -77 0 -93 14 -35 30 25 7 44 15 41 17 -2 2 -35 -5 -73
-16 -81 -24 -262 -40 -272 -23 -4 7 -19 8 -46 2 -52 -13 -2267 -12 -2240 1 13
5 6 6 -20 1 -22 -4 -357 -6 -745 -5 -388 0 -696 -3 -685 -7 26 -11 -597 -12
-654 -1 -26 5 -74 4 -119 -2 -71 -10 -130 -5 -197 18 -17 6 -17 5 -5 -5 12 -8
-2 -10 -60 -7 -41 2 -84 7 -95 11 -17 7 -17 6 -5 -4 12 -9 -4 -10 -72 -7 -57
3 -88 1 -88 -5 0 -11 -59 -6 -116 8 -18 5 -25 3 -20 -4 10 -17 -417 -13 -474
4 -58 18 -69 18 -44 0 16 -13 -125 -15 -1071 -16 -600 -1 -1094 -1 -1100 -2
-5 0 -68 1 -140 2 -71 0 -164 -1 -205 -4 -41 -2 -80 -1 -85 4 -6 5 -31 4 -56
-1 -26 -6 -73 -9 -105 -7 -54 3 -57 4 -34 16 23 11 21 11 -15 5 -22 -3 -50
-10 -63 -14 -36 -14 -105 -11 -96 3 5 8 2 9 -12 3 -10 -4 -51 -10 -90 -13 -65
-4 -75 -2 -113 23 -22 15 -41 32 -41 36 0 5 79 9 176 9 130 0 173 -3 168 -12
-5 -8 0 -9 17 -4 13 4 60 10 103 13 64 5 78 4 71 -7 -6 -10 -4 -12 11 -6 10 4
60 10 109 12 84 5 89 4 70 -11 -19 -15 -18 -16 25 -10 25 3 61 11 81 17 20 5
44 8 55 6 14 -4 8 -9 -24 -23 -24 -9 -41 -19 -39 -22 2 -2 26 6 53 17 26 12
63 20 81 18 17 -1 35 1 39 5 12 12 46 8 38 -4 -5 -9 1 -10 22 -4 78 19 231 22
1459 25 726 1 1329 2 1340 2 11 0 171 -1 357 -1 263 0 357 -4 431 -17 53 -8
104 -14 114 -11 10 3 2 6 -17 7 -19 1 -44 5 -55 10 -12 5 71 9 207 9 129 1
228 -3 230 -8 2 -6 23 -6 53 -1 77 13 785 20 785 8 0 -6 10 -7 28 -2 38 11
361 11 355 0 -3 -5 9 -6 28 -2 71 14 361 19 368 7 6 -9 15 -9 35 -1 36 13 103
13 108 -1 3 -8 14 -8 43 0 50 14 132 14 137 1 2 -7 14 -7 35 -1 18 5 350 10
760 11 400 0 728 2 729 3 6 5 543 -3 558 -9z m645 -461 c-1 -247 -4 -437 -8
-423 -7 22 -8 21 -13 -15 -2 -22 -1 -51 3 -65 6 -22 8 -22 10 -5 1 11 5 -27 8
-85 3 -58 3 -106 -1 -108 -5 -2 -8 -8 -8 -13 0 -6 5 -7 11 -3 12 7 6 -168 -7
-221 -4 -18 -2 -30 7 -35 11 -7 10 -24 -4 -99 -10 -50 -20 -99 -23 -109 -5
-16 -5 -16 9 1 8 9 17 17 21 17 3 0 6 -65 6 -145 0 -124 -2 -144 -15 -139 -9
4 -15 0 -15 -10 0 -9 4 -16 9 -16 13 0 22 -148 20 -331 -1 -90 0 -202 2 -249
5 -128 4 -191 -6 -229 -6 -25 -5 -32 3 -27 9 5 12 -88 12 -373 0 -210 -4 -381
-8 -381 -5 0 -14 18 -21 41 -7 23 -15 38 -18 35 -3 -3 6 -35 21 -71 29 -73 33
-100 10 -70 -15 19 -15 19 -8 -10 4 -16 11 -40 15 -53 5 -13 9 -67 9 -120 -1
-92 -2 -95 -15 -67 -16 32 -14 18 5 -55 6 -25 10 -70 8 -100 -3 -51 -4 -53
-15 -30 -16 35 -16 6 1 -33 9 -21 14 -80 14 -170 1 -76 4 -142 7 -148 4 -5 1
-9 -4 -9 -6 0 -11 5 -11 12 0 6 -3 9 -6 6 -3 -3 2 -23 10 -43 19 -44 23 -331
6 -337 -7 -2 -7 -15 0 -38 14 -48 13 -270 -1 -250 -7 11 -8 3 -4 -30 7 -48 22
-1000 17 -1038 -2 -12 -7 -22 -11 -22 -3 0 -5 102 -3 226 3 161 1 229 -7 237
-9 9 -11 -44 -10 -212 0 -149 -3 -227 -10 -234 -8 -8 -11 28 -13 128 0 77 0
156 0 175 1 19 2 122 3 228 1 105 5 195 10 198 5 3 8 40 7 82 l-1 77 -6 -65
c-12 -127 -21 -13 -19 241 1 135 -2 250 -5 256 -4 6 -6 307 -6 669 1 363 0
673 -1 689 -2 17 -4 309 -5 650 -1 341 -4 737 -5 880 -2 185 1 274 10 308 7
26 10 51 6 54 -3 4 -6 -3 -6 -15 0 -11 -5 -24 -11 -28 -9 -5 -10 47 -6 202 4
115 9 225 12 244 4 29 3 31 -4 10 -6 -15 -9 190 -10 520 0 542 0 545 21 567
12 13 25 23 30 23 4 0 8 -201 7 -447z m-9748 381 l37 -25 6 -1077 c3 -592 8
-1436 10 -1875 3 -572 2 -795 -6 -791 -8 5 -9 -7 -2 -42 10 -57 10 -1760 -1
-1831 -5 -33 -9 -42 -16 -32 -6 9 -9 -5 -9 -42 0 -31 -3 -71 -6 -88 -6 -26 -4
-30 10 -25 12 5 16 20 16 64 0 33 3 61 7 63 5 3 6 -56 4 -131 -2 -85 -7 -128
-11 -112 -6 17 -8 4 -7 -40 2 -62 1 -65 -23 -68 l-25 -3 0 438 c0 241 4 449 9
462 6 17 6 22 -2 17 -8 -5 -11 152 -11 566 0 315 -3 717 -6 893 -3 176 -7 977
-10 1780 -3 803 -8 1565 -12 1693 -3 127 -2 232 2 232 5 0 25 -11 46 -26z
m7485 -36 c4 -4 -4 -17 -17 -28 -17 -15 -12 -14 16 4 37 24 95 35 95 19 0 -4
-12 -18 -27 -31 -33 -28 -11 -18 33 15 31 23 94 32 94 14 0 -6 -17 -22 -37
-37 -55 -40 -63 -50 -24 -28 18 10 46 31 62 47 18 17 38 27 58 27 43 0 39 -14
-14 -50 -25 -17 -45 -33 -45 -36 0 -5 37 17 94 58 61 43 121 35 69 -9 -20 -17
-15 -15 21 7 85 52 120 34 41 -20 -25 -17 -45 -33 -45 -36 0 -3 29 15 64 40
61 43 108 58 121 37 3 -6 -24 -31 -60 -56 -115 -83 -61 -57 69 32 46 32 94 40
98 17 1 -5 -52 -47 -118 -94 -128 -90 -189 -136 -164 -124 8 4 51 33 95 64
144 102 232 159 256 165 27 6 60 -11 44 -22 -6 -5 -47 -32 -90 -62 -112 -77
-258 -182 -270 -194 -15 -16 41 20 130 83 225 159 278 192 315 197 20 3 40 1
43 -4 3 -5 -29 -32 -71 -61 -42 -29 -73 -52 -69 -52 4 0 48 27 97 60 79 53
140 76 140 53 0 -5 -71 -56 -158 -116 -86 -59 -170 -119 -187 -133 -27 -23 15
4 267 175 42 29 82 59 88 67 13 15 90 20 90 5 0 -4 -54 -45 -121 -91 -66 -45
-118 -84 -116 -86 2 -3 67 38 143 91 76 52 146 95 156 95 39 0 13 -28 -88 -94
-57 -38 -110 -76 -116 -83 -6 -8 49 26 123 76 124 84 199 119 199 93 0 -5 -55
-49 -122 -96 -68 -47 -136 -97 -153 -111 -28 -24 12 2 243 159 81 55 105 65
116 48 3 -5 -101 -82 -229 -171 -129 -89 -235 -165 -235 -167 0 -3 6 -1 13 3
25 16 205 139 327 223 69 48 139 95 157 104 33 17 128 22 137 8 3 -5 -65 -58
-150 -117 -85 -60 -158 -113 -161 -118 -8 -14 -2 -10 179 115 185 127 200 135
230 121 20 -9 18 -12 -43 -53 -127 -87 -434 -302 -444 -313 -17 -17 13 2 165
107 321 222 374 256 400 256 l25 -1 -26 -22 c-14 -12 -80 -59 -145 -104 -126
-88 -172 -122 -164 -123 3 0 87 56 185 125 124 86 189 125 208 125 16 0 26 -4
23 -9 -3 -5 -69 -53 -147 -107 -77 -54 -143 -103 -147 -109 -3 -5 4 -3 16 5
274 189 323 220 351 220 17 0 31 -4 31 -9 0 -4 -33 -30 -72 -56 -98 -64 -278
-195 -278 -202 0 -2 28 15 63 40 35 25 123 86 197 136 115 78 139 91 174 91
40 -1 41 -1 20 -18 -11 -9 -31 -25 -45 -35 -14 -11 -8 -9 16 4 22 12 47 28 56
36 8 7 35 13 60 12 38 0 41 -2 25 -12 -102 -66 -278 -183 -396 -265 -80 -56
-230 -160 -335 -232 -177 -121 -261 -183 -225 -164 8 4 35 22 60 39 25 17 125
86 223 153 97 67 255 175 350 240 168 116 332 222 342 222 3 0 5 -12 5 -27 -1
-24 -17 -39 -113 -105 -62 -42 -186 -128 -277 -190 -91 -63 -291 -201 -445
-307 -247 -171 -335 -234 -285 -205 18 10 360 243 565 384 426 294 551 377
557 371 3 -3 4 -18 1 -32 -3 -20 -45 -53 -186 -150 -171 -117 -329 -227 -584
-403 -62 -42 -113 -80 -113 -82 0 -3 48 28 108 68 445 305 761 518 766 518 3
0 6 -11 6 -25 0 -20 -22 -39 -122 -107 -259 -176 -447 -309 -455 -321 -4 -6
15 5 42 25 104 76 521 358 529 358 3 0 6 -12 6 -27 0 -25 -19 -41 -155 -136
-85 -60 -155 -111 -155 -113 0 -3 68 41 151 97 114 77 153 99 159 89 4 -7 6
-18 4 -24 -3 -6 -138 -103 -301 -216 -163 -113 -365 -252 -447 -309 -83 -57
-206 -142 -273 -188 -68 -46 -123 -86 -123 -89 0 -7 523 349 975 663 88 61
162 107 166 102 3 -5 4 -22 1 -37 -3 -21 -24 -41 -95 -89 -51 -35 -105 -74
-122 -89 -16 -14 20 8 80 48 61 41 116 77 123 82 8 5 12 -1 12 -23 0 -28 -19
-43 -282 -226 -156 -107 -294 -205 -308 -216 -42 -33 92 56 343 229 160 109
242 161 249 154 17 -17 -1 -46 -46 -75 -78 -49 -381 -259 -396 -275 -25 -25 2
-8 155 98 312 215 295 205 295 173 0 -32 19 -17 -447 -342 -73 -51 -133 -94
-133 -97 0 -3 55 33 123 80 387 268 447 307 453 291 3 -8 4 -21 1 -29 -3 -7
-115 -89 -249 -181 -133 -92 -250 -174 -258 -182 -12 -13 109 67 454 301 45
30 59 33 54 9 -2 -9 -66 -59 -143 -112 -351 -242 -511 -354 -525 -368 -18 -18
26 9 157 99 432 295 498 337 506 329 23 -23 37 -12 -555 -421 -98 -67 -178
-124 -178 -127 0 -8 53 27 389 258 259 177 337 226 343 215 13 -24 0 -39 -84
-96 -155 -105 -583 -403 -593 -413 -17 -17 14 2 140 88 66 45 207 142 314 215
107 72 201 134 208 137 8 3 13 -2 13 -15 0 -14 -28 -39 -92 -83 -142 -96 -288
-200 -288 -205 0 -3 83 52 184 121 101 69 187 125 190 125 3 0 6 -11 6 -24 0
-19 -34 -47 -192 -156 -308 -213 -367 -255 -363 -258 2 -2 51 29 108 70 187
130 435 298 441 298 17 0 3 -57 -17 -71 -12 -9 -83 -58 -157 -108 -74 -51
-139 -98 -145 -103 -17 -18 11 -1 166 104 81 54 150 98 153 98 3 0 6 -9 6 -19
0 -22 -29 -46 -187 -155 -62 -42 -113 -79 -113 -82 0 -3 63 38 139 91 76 52
144 95 151 95 28 0 -4 -30 -112 -105 -64 -44 -120 -84 -125 -89 -13 -15 16 3
130 82 59 41 111 72 114 69 13 -14 -12 -39 -110 -108 -58 -40 -104 -75 -102
-77 2 -3 47 25 99 62 53 36 100 66 105 66 5 0 11 -9 14 -20 4 -17 -7 -30 -56
-65 -70 -51 -70 -59 0 -16 26 17 49 28 51 26 2 -2 3 -99 2 -216 -1 -184 -3
-216 -17 -232 -16 -17 -16 -17 0 -11 13 4 17 1 17 -15 0 -14 -22 -35 -75 -71
-41 -28 -75 -53 -75 -56 0 -2 27 14 60 36 89 61 90 61 90 1 0 -48 -2 -52 -40
-77 -22 -15 -38 -29 -36 -32 3 -2 19 6 36 18 17 12 32 21 33 19 24 -38 26
-125 32 -1377 6 -1271 5 -1324 -12 -1340 -10 -9 -14 -14 -9 -10 6 5 13 8 17 8
12 0 8 -74 -4 -89 -9 -12 -9 -13 1 -7 9 5 12 -2 12 -26 0 -19 -6 -40 -12 -47
-10 -11 -10 -13 0 -7 8 5 12 0 12 -13 0 -12 -3 -21 -7 -21 -5 0 -19 -10 -33
-21 l-25 -21 27 16 c37 22 38 21 38 -23 0 -28 -6 -43 -22 -55 -22 -16 -22 -16
-1 -6 20 9 21 7 26 -58 3 -37 6 -100 5 -140 l-1 -74 -53 -35 c-30 -20 -54 -38
-54 -41 0 -2 11 3 25 12 14 9 36 23 50 32 32 21 48 8 19 -14 -70 -55 -74 -60
-31 -32 56 37 67 18 15 -26 -27 -21 -28 -24 -6 -10 15 9 30 16 33 16 3 0 4
-25 4 -54 -2 -55 -2 -55 -55 -91 -30 -19 -54 -38 -54 -40 0 -3 24 10 53 30
l52 35 3 -32 c3 -27 -2 -38 -30 -62 -27 -24 -28 -26 -6 -13 15 10 30 17 33 17
12 0 4 -24 -12 -36 -17 -13 -17 -14 0 -8 22 8 22 -13 0 -38 -16 -18 -16 -18 0
-12 12 4 17 1 17 -14 0 -12 -19 -32 -55 -56 -30 -20 -55 -39 -55 -41 0 -3 24
10 52 30 53 35 76 32 42 -6 -16 -18 -16 -19 -1 -13 11 4 17 1 17 -7 0 -7 -8
-21 -17 -31 -16 -18 -16 -18 0 -12 14 5 17 0 17 -24 0 -18 -6 -32 -16 -36 -24
-9 -827 -7 -842 3 -10 6 -6 14 17 34 17 14 31 30 31 35 0 5 -28 24 -62 43
l-63 34 -240 2 c-362 2 -332 0 -309 19 17 15 17 15 -8 0 -15 -9 -40 -16 -55
-16 l-28 0 25 21 c22 18 22 19 3 10 -12 -6 -25 -16 -28 -21 -3 -6 -22 -10 -42
-10 -32 0 -34 2 -22 17 13 17 13 17 -7 0 -14 -11 -36 -17 -70 -16 l-49 1 60
19 c33 11 68 17 77 15 10 -2 20 0 23 4 3 5 28 16 55 25 37 12 68 34 115 82 84
85 85 100 5 105 -66 3 -80 1 -80 -13 0 -5 25 -9 55 -9 30 0 55 -4 55 -9 0 -10
-96 -102 -130 -123 -14 -9 -79 -28 -145 -43 -66 -15 -255 -61 -419 -102 -165
-40 -303 -70 -307 -66 -13 15 -40 126 -32 133 4 4 175 49 379 99 203 51 377
96 384 101 48 30 -44 12 -395 -75 l-395 -98 0 -32 c0 -18 7 -52 15 -75 25 -70
21 -87 -22 -93 -21 -3 -717 -7 -1548 -8 -1514 -2 -1916 0 -1924 7 -2 2 3 28
11 58 8 30 12 60 7 67 -9 15 -427 25 -448 10 -10 -6 -16 -33 -19 -76 l-4 -66
-520 3 c-424 2 -520 5 -527 17 -6 9 -11 10 -15 2 -4 -6 -26 -11 -49 -11 l-42
1 35 30 35 31 -47 -31 c-31 -21 -59 -31 -84 -31 -46 0 -39 10 50 70 36 24 63
46 61 48 -5 6 -155 -100 -155 -110 0 -4 -16 -8 -35 -8 -45 0 -44 11 5 44 22
14 40 29 40 32 0 6 -19 -5 -90 -53 -41 -28 -96 -32 -86 -7 6 15 4 15 -18 0
-27 -17 -63 -21 -82 -8 -6 4 -9 21 -7 39 4 23 16 39 44 58 21 14 39 28 39 30
0 3 -23 -10 -52 -29 -28 -19 -56 -33 -61 -29 -5 3 -4 10 2 16 6 6 11 18 11 27
0 8 17 30 37 48 37 33 37 33 5 12 -20 -13 -37 -19 -42 -14 -22 22 6 57 96 120
81 57 103 74 91 74 -1 0 -42 -29 -92 -64 -86 -62 -89 -63 -100 -42 -6 12 -10
63 -9 120 2 54 -1 106 -6 115 -16 30 -29 82 -24 95 3 8 -2 28 -10 45 -9 16
-16 42 -16 56 0 16 -12 38 -29 55 -28 28 -31 29 -135 29 -67 0 -113 4 -121 11
-8 7 -19 9 -25 5 -16 -10 -115 -16 -315 -18 -93 -1 -175 -6 -182 -10 -7 -4
-43 -8 -80 -9 -37 0 -76 -5 -87 -10 -12 -6 -22 -6 -28 0 -7 7 -25 1 -57 -18
-25 -15 -58 -30 -72 -34 -16 -3 -29 -15 -33 -28 -12 -45 -23 -54 -275 -225
-111 -74 -137 -88 -142 -75 -4 10 -3 22 2 27 4 6 89 67 188 135 99 69 181 129
181 133 0 5 -12 0 -27 -11 -16 -11 -98 -68 -183 -126 l-155 -107 -7 27 c-4 15
-5 31 -3 35 3 4 55 42 115 84 61 43 110 80 110 82 0 6 -15 -3 -118 -74 -51
-35 -97 -61 -102 -58 -4 3 -5 16 -2 30 7 24 61 64 472 346 80 54 159 111 175
125 28 24 -17 -6 -165 -108 -251 -173 -480 -328 -484 -328 -3 0 -6 11 -6 24 0
21 37 51 238 189 130 91 248 175 262 186 27 24 -199 -127 -375 -250 -60 -43
-113 -75 -117 -73 -5 3 -8 14 -8 24 0 22 25 41 290 224 102 71 192 135 200
143 13 14 -271 -176 -419 -279 -30 -21 -58 -38 -63 -38 -4 0 -8 11 -8 24 0 21
23 41 133 116 349 240 419 289 425 296 13 14 -26 -12 -283 -185 -143 -97 -263
-177 -267 -179 -5 -2 -8 5 -8 16 0 12 17 30 43 47 89 59 602 418 612 428 18
19 -45 -23 -347 -229 -163 -112 -299 -204 -302 -204 -3 0 -6 10 -6 23 0 25 -9
19 487 361 134 92 246 172 249 178 4 5 -58 -34 -137 -88 -293 -199 -525 -358
-555 -381 -39 -29 -44 -29 -44 0 0 29 6 34 145 129 247 170 454 315 486 341
37 31 -75 -44 -393 -262 -114 -78 -214 -144 -223 -147 -10 -4 -15 0 -15 13 0
13 66 64 220 172 121 84 220 155 220 158 0 2 -96 -61 -214 -141 -118 -80 -217
-146 -220 -146 -3 0 -6 10 -6 23 0 24 -8 18 393 296 81 57 147 105 147 108 0
2 -12 -4 -28 -15 -129 -90 -502 -342 -507 -342 -3 0 -5 12 -5 28 0 24 19 40
161 137 88 61 163 114 166 119 8 12 -1 7 -160 -101 -160 -109 -167 -113 -167
-85 0 22 26 45 173 146 53 37 97 69 97 72 0 2 -56 -34 -124 -81 -69 -47 -129
-85 -135 -85 -28 0 -3 24 99 95 60 43 110 80 110 82 0 6 -14 -3 -118 -75 -89
-61 -111 -70 -99 -39 3 8 93 76 201 151 108 75 196 139 196 142 0 4 -88 -55
-302 -203 -43 -29 -82 -53 -88 -53 -5 0 -10 11 -10 24 0 20 25 41 142 121 79
54 150 104 158 112 8 9 -54 -30 -137 -86 -84 -55 -155 -101 -158 -101 -3 0 -5
11 -5 25 0 17 9 31 28 43 52 32 322 224 322 228 0 4 -190 -122 -288 -192 -50
-35 -70 -40 -59 -12 2 7 90 73 196 146 105 74 194 139 198 145 4 7 -9 0 -28
-14 -18 -14 -99 -70 -179 -124 -80 -54 -152 -104 -161 -111 -24 -21 -29 -17
-29 19 1 28 8 36 55 66 29 19 66 45 82 58 15 13 -2 5 -40 -18 -37 -23 -70 -45
-73 -50 -10 -18 -24 -9 -24 16 0 19 13 33 55 61 30 21 53 39 51 41 -3 3 -25
-9 -50 -26 -24 -17 -47 -31 -50 -31 -3 0 -6 24 -6 54 l0 54 55 37 c30 21 53
40 51 43 -3 2 -25 -10 -50 -27 -52 -36 -56 -37 -56 -13 0 11 47 50 135 111 74
51 138 98 142 104 4 6 -50 -28 -120 -76 -146 -101 -157 -107 -157 -80 0 12 27
38 75 72 41 30 75 56 75 59 0 5 -36 -18 -94 -60 -21 -15 -43 -28 -48 -28 -4 0
-8 22 -8 50 0 47 2 51 40 76 22 15 38 29 36 32 -3 2 -19 -6 -36 -18 -17 -12
-33 -20 -36 -18 -5 6 -19 3908 -13 3908 2 1 1239 3 2749 7 1510 3 2746 7 2748
8 8 7 1901 -1 1908 -7z m-5971 -5263 c110 0 145 -17 145 -67 0 -17 4 -45 9
-62 14 -45 41 -171 41 -190 0 -9 -8 -16 -17 -16 -17 -1 -17 -1 0 -14 20 -15
22 -37 5 -54 -8 -8 -9 -12 -1 -12 6 0 9 -9 6 -19 -3 -10 0 -28 5 -38 13 -24 5
-36 -35 -54 -19 -8 -33 -21 -33 -31 0 -25 40 -18 51 9 14 36 26 27 20 -14 -4
-23 -12 -39 -21 -39 -8 -1 -20 -2 -26 -3 -20 -2 -24 -43 -6 -57 14 -11 14 -13
2 -14 -8 0 -21 -9 -28 -21 -8 -13 -19 -18 -29 -15 -10 4 -26 -3 -40 -15 -12
-13 -23 -17 -23 -11 0 7 5 12 10 12 6 0 10 7 10 15 0 8 -2 15 -4 15 -2 0 -12
3 -20 6 -12 5 -15 2 -10 -10 5 -12 0 -16 -20 -16 -16 0 -26 -6 -26 -14 0 -8
-7 -16 -15 -20 -20 -7 -19 3 3 27 12 15 14 21 5 24 -7 3 -13 11 -13 19 0 9 -4
12 -10 9 -5 -3 -15 -3 -21 0 -17 11 23 34 49 28 16 -4 22 -1 22 11 0 9 -8 16
-19 16 -26 0 -130 -91 -123 -108 3 -10 13 -6 33 14 22 21 29 24 29 12 0 -24
-62 -58 -104 -58 -20 0 -36 3 -36 8 1 18 18 32 33 26 19 -7 24 11 6 21 -7 5
-4 14 7 26 9 11 15 21 13 24 -8 7 -23 -9 -39 -39 -17 -33 -66 -73 -76 -63 -4
4 0 15 8 24 27 32 34 50 11 30 -18 -16 -21 -16 -26 -2 -8 20 -43 19 -51 -1 -8
-22 3 -32 14 -14 12 20 33 0 24 -23 -5 -15 -25 -17 -145 -17 l-139 0 0 25 c0
23 -3 25 -27 19 -34 -8 -39 -12 -29 -21 4 -4 16 -2 27 5 18 12 20 11 17 -5 -3
-16 -18 -18 -165 -21 l-162 -2 -39 37 c-38 37 -39 40 -37 98 1 33 6 72 10 86
4 16 2 30 -4 33 -6 4 -11 23 -11 43 0 27 3 34 15 30 11 -5 13 1 9 26 -5 30 -5
31 10 13 12 -15 16 -16 16 -5 0 16 -19 39 -32 39 -4 0 -8 -11 -8 -25 0 -14 -5
-25 -11 -25 -7 0 -10 12 -7 33 3 17 2 61 -2 97 -6 59 -4 68 17 97 16 21 20 32
12 35 -43 14 106 113 176 116 17 1 66 6 110 12 44 5 181 12 304 15 124 3 227
8 230 11 3 3 24 2 46 -2 22 -5 81 -9 130 -9z m-1038 -183 c-10 -10 -17 -28
-17 -39 0 -16 -42 -49 -167 -135 -93 -63 -174 -118 -180 -122 -9 -5 -13 2 -13
23 0 34 -8 27 254 210 122 85 161 105 123 63z m-7 -136 c0 -76 19 -57 -215
-215 -134 -91 -150 -100 -153 -81 -2 12 -1 27 1 34 3 7 72 58 154 114 134 92
231 166 193 146 -8 -5 -82 -55 -165 -112 -193 -133 -185 -130 -185 -95 1 25
21 42 178 150 97 67 180 122 185 123 4 0 7 -29 7 -64z m4 -130 c-5 -20 -41
-50 -153 -124 -80 -54 -163 -108 -183 -121 l-38 -23 0 30 c0 27 10 38 78 85
200 141 287 196 295 188 4 -4 5 -20 1 -35z m-14 -97 c-26 -23 -28 -26 -7 -14
l27 17 0 -30 c0 -28 -10 -38 -97 -97 -94 -64 -154 -88 -167 -67 -3 5 19 26 49
46 30 20 55 39 55 41 0 5 -81 -44 -135 -81 -22 -16 -71 -19 -79 -5 -3 5 18 23
46 39 29 17 112 71 183 120 115 80 132 88 145 76 13 -13 11 -19 -20 -45z
m7378 -137 l3 -62 -53 -2 c-29 -1 -64 -1 -78 -1 -14 1 -71 2 -128 3 -76 1
-101 4 -96 13 5 8 3 8 -7 0 -17 -16 -73 -18 -63 -2 9 15 84 49 109 49 18 0 18
-2 -5 -21 l-25 -21 28 16 c15 9 38 23 51 32 23 15 231 65 251 60 6 -2 11 -30
13 -64z m-7366 27 c-3 -21 -15 -38 -42 -55 -39 -26 -90 -36 -96 -19 -3 9 121
103 137 105 3 0 4 -14 1 -31z m1232 10 c-8 -14 -24 -10 -24 6 0 9 6 12 15 9 8
-4 12 -10 9 -15z m7091 -8 l60 -28 -64 -31 -64 -32 -430 0 c-236 -1 -431 0
-432 2 -6 8 -13 107 -8 112 4 3 202 6 442 6 l436 0 60 -29z m-5056 9 c10 -5 6
-20 -13 -59 l-26 -51 -185 0 -185 0 0 53 c0 30 3 57 7 61 9 9 387 6 402 -4z
m-2013 -66 c21 -32 7 -52 -25 -35 -28 15 -28 61 0 61 5 0 16 -11 25 -26z
m-1232 1 c6 -15 -21 -35 -48 -35 -23 0 -20 16 6 34 28 20 34 20 42 1z m936
-27 c-12 -10 -25 -16 -28 -13 -9 8 30 45 41 38 6 -4 1 -14 -13 -25z m5979 6
c-10 -10 -29 -14 -50 -12 l-34 4 35 11 c54 17 68 16 49 -3z m-6879 -14 c0 -5
-2 -10 -4 -10 -3 0 -8 5 -11 10 -3 6 -1 10 4 10 6 0 11 -4 11 -10z m1095 0 c3
-5 -1 -10 -10 -10 -9 0 -13 5 -10 10 3 6 8 10 10 10 2 0 7 -4 10 -10z m3485
-40 c217 0 530 3 694 6 205 5 297 4 293 -3 -9 -14 -74 -24 -217 -34 l-115 -7
125 3 c69 2 161 11 205 19 44 8 133 16 198 18 116 3 154 -6 77 -18 -23 -4 -38
-9 -36 -12 3 -2 43 3 90 13 65 14 112 17 201 13 64 -3 133 -2 153 3 21 4 39 4
42 -1 4 -6 29 -6 65 0 80 13 205 13 205 0 0 -7 13 -9 33 -6 74 12 345 17 352
7 3 -7 -3 -11 -17 -12 -13 0 -17 -3 -11 -6 7 -2 27 0 45 6 47 15 169 24 143
11 -14 -7 -1 -8 50 -4 112 11 2044 14 2101 4 28 -5 67 -5 88 0 32 7 37 6 34
-8 -3 -13 -15 -17 -53 -17 -28 0 -95 -2 -150 -4 -79 -3 -91 -5 -60 -11 22 -4
31 -8 21 -9 -11 0 -17 -4 -13 -7 3 -3 28 -1 56 5 29 6 83 8 126 4 64 -5 75 -9
75 -25 0 -18 -40 -18 -1362 -17 -925 0 -1357 4 -1348 10 11 8 7 9 -15 4 -62
-12 -305 -18 -305 -7 0 7 -10 8 -32 1 -43 -12 -218 -12 -218 0 0 6 -12 6 -32
0 -48 -13 -277 -12 -258 2 11 8 8 9 -15 5 -44 -9 -285 -20 -285 -14 0 3 55 14
122 24 67 10 117 19 111 21 -6 2 -62 -3 -125 -12 -163 -23 -543 -38 -833 -32
-240 4 -255 5 -374 36 -68 17 -126 30 -128 27 -2 -2 33 -14 79 -26 46 -12 90
-26 98 -31 22 -12 -173 -11 -266 2 -56 8 -79 8 -82 0 -5 -15 -95 -13 -172 4
-108 24 -116 25 -82 13 17 -6 32 -14 32 -19 0 -13 -113 -8 -140 7 -33 17 -130
47 -136 42 -2 -3 23 -13 56 -23 32 -10 57 -22 54 -26 -7 -12 -667 -12 -679 0
-6 5 -39 11 -75 14 -36 3 -56 3 -45 0 11 -3 24 -9 29 -14 6 -5 -603 -7 -1421
-6 -787 1 -1429 5 -1426 10 2 4 -14 5 -36 1 -22 -4 -201 -7 -397 -8 -357 -1
-403 3 -337 32 l28 12 -27 -4 c-24 -3 -28 1 -28 20 l0 23 1127 1 c620 0 1124
-2 1121 -6 -4 -3 -28 -12 -55 -19 -26 -7 -39 -13 -28 -14 11 0 45 8 75 19 46
16 83 19 235 20 130 0 176 -3 165 -11 -12 -8 -10 -9 10 -5 14 3 67 8 119 12
77 6 93 5 86 -6 -6 -10 -4 -11 11 -6 31 13 322 19 304 7 -11 -8 -6 -9 20 -4
49 10 997 10 1040 0 25 -6 31 -5 20 2 -15 11 339 19 535 13 50 -1 268 -2 485
-2z"/>
<path d="M3028 6613 c12 -2 32 -2 45 0 12 2 2 4 -23 4 -25 0 -35 -2 -22 -4z"/>
<path d="M6978 6603 c7 -3 16 -2 19 1 4 3 -2 6 -13 5 -11 0 -14 -3 -6 -6z"/>
<path d="M7818 6603 c7 -3 16 -2 19 1 4 3 -2 6 -13 5 -11 0 -14 -3 -6 -6z"/>
<path d="M3910 6590 c-24 -8 -24 -8 7 -9 17 -1 35 4 38 9 7 11 -9 11 -45 0z"/>
<path d="M6203 6593 c20 -2 54 -2 75 0 20 2 3 4 -38 4 -41 0 -58 -2 -37 -4z"/>
<path d="M3443 6583 c9 -2 23 -2 30 0 6 3 -1 5 -18 5 -16 0 -22 -2 -12 -5z"/>
<path d="M10921 5634 c0 -11 3 -14 6 -6 3 7 2 16 -1 19 -3 4 -6 -2 -5 -13z"/>
<path d="M10932 5420 c0 -19 2 -27 5 -17 2 9 2 25 0 35 -3 9 -5 1 -5 -18z"/>
<path d="M10922 5345 c0 -16 2 -22 5 -12 2 9 2 23 0 30 -3 6 -5 -1 -5 -18z"/>
<path d="M10912 5290 c0 -14 2 -19 5 -12 2 6 2 18 0 25 -3 6 -5 1 -5 -13z"/>
<path d="M10921 5134 c0 -11 3 -14 6 -6 3 7 2 16 -1 19 -3 4 -6 -2 -5 -13z"/>
<path d="M10913 4525 c0 -22 2 -30 4 -17 2 12 2 30 0 40 -3 9 -5 -1 -4 -23z"/>
<path d="M10937 4300 c3 -47 7 -87 9 -89 7 -8 2 114 -6 144 -5 18 -6 -4 -3
-55z"/>
<path d="M1202 5180 c0 -14 2 -19 5 -12 2 6 2 18 0 25 -3 6 -5 1 -5 -13z"/>
<path d="M1232 4080 c0 -14 2 -19 5 -12 2 6 2 18 0 25 -3 6 -5 1 -5 -13z"/>
<path d="M1231 2844 c0 -11 3 -14 6 -6 3 7 2 16 -1 19 -3 4 -6 -2 -5 -13z"/>
<path d="M1207 615 c3 -44 7 -82 9 -84 8 -8 2 115 -6 139 -5 14 -6 -9 -3 -55z"/>
<path d="M9024 6424 c-18 -14 -18 -15 4 -4 12 6 22 13 22 15 0 8 -5 6 -26 -11z"/>
<path d="M10463 6329 c-24 -17 -43 -32 -43 -35 0 -3 20 9 45 26 25 17 45 33
45 35 0 7 -2 6 -47 -26z"/>
<path d="M9043 6209 c-24 -17 -43 -32 -43 -35 0 -3 20 9 45 26 25 17 45 33 45
35 0 7 -2 6 -47 -26z"/>
<path d="M2620 6134 c-58 -41 -109 -80 -115 -87 -12 -13 -20 -19 123 82 87 62
112 82 100 81 -2 -1 -50 -35 -108 -76z"/>
<path d="M2717 6154 c-42 -30 -77 -58 -77 -60 0 -5 61 38 135 93 63 47 16 20
-58 -33z"/>
<path d="M2527 6119 c-32 -22 -57 -42 -57 -45 0 -3 27 14 60 37 54 38 67 49
57 49 -2 0 -29 -18 -60 -41z"/>
<path d="M2455 6104 l-30 -26 33 22 c17 12 32 23 32 26 0 7 -4 5 -35 -22z"/>
<path d="M2345 6070 c-3 -6 1 -7 9 -4 18 7 21 14 7 14 -6 0 -13 -4 -16 -10z"/>
<path d="M2369 6043 c-13 -16 -12 -17 4 -4 9 7 17 15 17 17 0 8 -8 3 -21 -13z"/>
<path d="M2295 5994 l-30 -26 33 22 c17 12 32 23 32 26 0 7 -4 5 -35 -22z"/>
<path d="M2169 5993 c-13 -16 -12 -17 4 -4 16 13 21 21 13 21 -2 0 -10 -8 -17
-17z"/>
<path d="M2335 5984 l-30 -26 33 22 c17 12 32 23 32 26 0 7 -4 5 -35 -22z"/>
<path d="M2352 5946 c-73 -53 -101 -77 -72 -61 26 15 150 106 150 111 0 7 -2
5 -78 -50z"/>
<path d="M10441 5930 c-89 -63 -116 -86 -66 -56 77 47 167 116 152 116 -1 0
-40 -27 -86 -60z"/>
<path d="M2067 5924 c-42 -30 -77 -58 -77 -61 0 -5 126 81 150 103 30 29 2 12
-73 -42z"/>
<path d="M2140 5929 c-78 -57 -87 -70 -12 -19 54 37 82 61 70 60 -2 -1 -28
-19 -58 -41z"/>
<path d="M2201 5931 c-29 -22 -58 -45 -65 -52 -12 -14 90 56 114 78 26 24 6
13 -49 -26z"/>
<path d="M2279 5943 c-13 -16 -12 -17 4 -4 16 13 21 21 13 21 -2 0 -10 -8 -17
-17z"/>
<path d="M2395 5924 l-30 -26 33 22 c17 12 32 23 32 26 0 7 -4 5 -35 -22z"/>
<path d="M1990 5909 c-22 -18 -22 -19 -3 -10 12 6 25 16 28 21 9 15 3 12 -25
-11z"/>
<path d="M2225 5904 l-30 -26 33 22 c17 12 32 23 32 26 0 7 -4 5 -35 -22z"/>
<path d="M2339 5883 c-13 -16 -12 -17 4 -4 16 13 21 21 13 21 -2 0 -10 -8 -17
-17z"/>
<path d="M2160 5859 c-22 -18 -22 -19 -3 -10 12 6 25 16 28 21 9 15 3 12 -25
-11z"/>
<path d="M2109 5823 c-13 -16 -12 -17 4 -4 9 7 17 15 17 17 0 8 -8 3 -21 -13z"/>
<path d="M1785 5724 l-30 -26 33 22 c17 12 32 23 32 26 0 7 -4 5 -35 -22z"/>
<path d="M1909 5723 c-13 -16 -12 -17 4 -4 9 7 17 15 17 17 0 8 -8 3 -21 -13z"/>
<path d="M1946 5710 c-47 -36 -57 -46 -31 -32 23 13 83 61 75 61 -3 0 -22 -13
-44 -29z"/>
<path d="M9499 5513 c-13 -16 -12 -17 4 -4 16 13 21 21 13 21 -2 0 -10 -8 -17
-17z"/>
<path d="M10179 5513 c-13 -16 -12 -17 4 -4 9 7 17 15 17 17 0 8 -8 3 -21 -13z"/>
<path d="M9429 5463 c-13 -16 -12 -17 4 -4 16 13 21 21 13 21 -2 0 -10 -8 -17
-17z"/>
<path d="M10519 5043 c-13 -16 -12 -17 4 -4 16 13 21 21 13 21 -2 0 -10 -8
-17 -17z"/>
<path d="M10745 4960 c-3 -5 -2 -10 4 -10 5 0 13 5 16 10 3 6 2 10 -4 10 -5 0
-13 -4 -16 -10z"/>
<path d="M10744 4905 c-10 -8 -14 -15 -8 -15 6 0 17 7 24 15 16 19 9 19 -16 0z"/>
<path d="M10540 4890 c-9 -6 -10 -10 -3 -10 6 0 15 5 18 10 8 12 4 12 -15 0z"/>
<path d="M10645 4890 c-3 -5 -1 -10 4 -10 6 0 11 5 11 10 0 6 -2 10 -4 10 -3
0 -8 -4 -11 -10z"/>
<path d="M10640 4829 c0 -5 5 -7 10 -4 6 3 10 8 10 11 0 2 -4 4 -10 4 -5 0
-10 -5 -10 -11z"/>
<path d="M10744 4825 c-10 -8 -14 -15 -8 -15 6 0 17 7 24 15 16 19 9 19 -16 0z"/>
<path d="M10539 4813 c-13 -15 -12 -15 9 -4 23 12 28 21 13 21 -5 0 -15 -7
-22 -17z"/>
<path d="M10425 4810 c-3 -6 1 -7 9 -4 18 7 21 14 7 14 -6 0 -13 -4 -16 -10z"/>
<path d="M10535 4760 c-3 -6 1 -7 9 -4 18 7 21 14 7 14 -6 0 -13 -4 -16 -10z"/>
<path d="M10412 4675 c-28 -20 -52 -38 -52 -40 0 -3 25 11 55 31 48 32 62 44
52 44 -1 0 -26 -16 -55 -35z"/>
<path d="M10685 4529 c-66 -44 -127 -87 -135 -96 -8 -8 47 26 123 77 121 81
146 100 134 100 -2 0 -57 -36 -122 -81z"/>
<path d="M10643 4439 c-24 -17 -43 -32 -43 -35 0 -3 20 9 45 26 25 17 45 33
45 35 0 7 -2 6 -47 -26z"/>
<path d="M1659 2283 c-13 -17 -13 -17 6 -3 11 8 22 16 24 17 2 2 0 3 -6 3 -6
0 -17 -8 -24 -17z"/>
<path d="M1676 2225 c-75 -52 -80 -63 -6 -15 77 51 76 50 64 49 -5 0 -31 -15
-58 -34z"/>
<path d="M1935 2084 c-137 -99 -131 -103 10 -6 92 63 103 72 90 72 -6 -1 -50
-30 -100 -66z"/>
<path d="M1715 2074 l-30 -26 33 22 c17 12 32 23 32 26 0 7 -4 5 -35 -22z"/>
<path d="M1779 1903 c-13 -16 -12 -17 4 -4 9 7 17 15 17 17 0 8 -8 3 -21 -13z"/>
<path d="M1896 1645 c-27 -18 -54 -39 -60 -46 -6 -6 17 7 52 30 34 23 62 44
62 46 0 7 -1 7 -54 -30z"/>
<path d="M10849 1333 c-13 -16 -12 -17 4 -4 16 13 21 21 13 21 -2 0 -10 -8
-17 -17z"/>
<path d="M10849 1233 c-13 -16 -12 -17 4 -4 16 13 21 21 13 21 -2 0 -10 -8
-17 -17z"/>
<path d="M10812 915 c-28 -20 -52 -38 -52 -40 0 -3 25 11 55 31 48 32 62 44
52 44 -1 0 -26 -16 -55 -35z"/>
<path d="M10703 839 c-24 -17 -43 -32 -43 -35 0 -3 20 9 45 26 25 17 45 33 45
35 0 7 -2 6 -47 -26z"/>
<path d="M10769 663 c-13 -16 -12 -17 4 -4 16 13 21 21 13 21 -2 0 -10 -8 -17
-17z"/>
<path d="M3080 609 l-35 -30 43 27 c23 15 42 28 42 30 0 11 -18 0 -50 -27z"/>
<path d="M3005 554 l-30 -26 33 22 c17 12 32 23 32 26 0 7 -4 5 -35 -22z"/>
<path d="M2115 1220 c-18 -8 -18 -9 5 -9 14 0 32 4 40 9 12 8 12 10 -5 9 -11
0 -29 -4 -40 -9z"/>
<path d="M2200 1220 c-13 -8 -12 -10 3 -10 9 0 17 5 17 10 0 12 -1 12 -20 0z"/>
<path d="M2270 1220 c0 -5 4 -10 9 -10 6 0 13 5 16 10 3 6 -1 10 -9 10 -9 0
-16 -4 -16 -10z"/>
<path d="M2430 1226 c0 -2 7 -6 15 -10 8 -3 15 -1 15 4 0 6 -7 10 -15 10 -8 0
-15 -2 -15 -4z"/>
<path d="M1880 1209 c0 -5 5 -7 10 -4 6 3 10 8 10 11 0 2 -4 4 -10 4 -5 0 -10
-5 -10 -11z"/>
<path d="M2348 1213 c7 -3 16 -2 19 1 4 3 -2 6 -13 5 -11 0 -14 -3 -6 -6z"/>
<path d="M2550 1216 c0 -2 7 -7 16 -10 8 -3 12 -2 9 4 -6 10 -25 14 -25 6z"/>
<path d="M2045 1200 c3 -5 8 -10 11 -10 2 0 4 5 4 10 0 6 -5 10 -11 10 -5 0
-7 -4 -4 -10z"/>
<path d="M2703 1203 c19 -3 27 -9 23 -18 -3 -9 0 -12 10 -8 30 11 15 33 -23
32 -32 -2 -33 -3 -10 -6z"/>
<path d="M2610 1181 c0 -5 5 -13 10 -16 6 -3 10 -2 10 4 0 5 -4 13 -10 16 -5
3 -10 2 -10 -4z"/>
<path d="M1829 1153 c-11 -15 -11 -16 1 -5 20 17 35 15 20 -3 -10 -12 -10 -15
3 -15 12 0 27 19 27 36 0 12 -39 2 -51 -13z"/>
<path d="M2688 1163 c7 -3 16 -2 19 1 4 3 -2 6 -13 5 -11 0 -14 -3 -6 -6z"/>
<path d="M2017 1153 c-13 -13 -7 -21 12 -16 14 4 20 -1 23 -19 4 -20 5 -21 12
-5 13 28 -26 62 -47 40z"/>
<path d="M2802 1141 c14 -23 33 -23 33 0 0 8 -10 15 -23 17 -21 3 -22 2 -10
-17z"/>
<path d="M2200 1140 c20 -13 33 -13 25 0 -3 6 -14 10 -23 10 -15 0 -15 -2 -2
-10z"/>
<path d="M2435 1120 c3 -5 8 -10 11 -10 2 0 4 5 4 10 0 6 -5 10 -11 10 -5 0
-7 -4 -4 -10z"/>
<path d="M1900 1085 c0 -10 7 -15 18 -13 21 4 19 22 -2 26 -10 2 -16 -3 -16
-13z"/>
<path d="M1727 1083 c-11 -11 -8 -25 4 -17 8 4 9 -3 4 -24 -6 -27 -4 -30 15
-25 11 3 23 10 27 16 4 6 0 8 -10 4 -14 -5 -17 0 -17 23 0 29 -9 38 -23 23z"/>
<path d="M2338 1054 c3 -15 8 -22 14 -16 9 9 1 42 -12 42 -4 0 -5 -12 -2 -26z"/>
<path d="M2510 1070 c19 -13 30 -13 30 0 0 6 -10 10 -22 10 -19 0 -20 -2 -8
-10z"/>
<path d="M2060 1056 c0 -2 9 -6 20 -9 11 -3 20 -1 20 4 0 5 -9 9 -20 9 -11 0
-20 -2 -20 -4z"/>
<path d="M1790 1046 c0 -2 7 -7 16 -10 8 -3 12 -2 9 4 -6 10 -25 14 -25 6z"/>
<path d="M2703 1033 c9 -9 19 -14 23 -11 10 10 -6 28 -24 28 -15 0 -15 -1 1
-17z"/>
<path d="M2853 1002 c12 -28 23 -47 25 -43 5 13 -24 85 -36 89 -6 2 -1 -19 11
-46z"/>
<path d="M2247 1010 c3 -11 7 -20 9 -20 2 0 4 9 4 20 0 11 -4 20 -9 20 -5 0
-7 -9 -4 -20z"/>
<path d="M2785 1021 c-3 -5 -1 -12 5 -16 5 -3 10 1 10 9 0 18 -6 21 -15 7z"/>
<path d="M1830 1016 c0 -2 7 -6 15 -10 8 -3 15 -1 15 4 0 6 -7 10 -15 10 -8 0
-15 -2 -15 -4z"/>
<path d="M2190 1011 c0 -5 5 -13 10 -16 6 -3 10 -2 10 4 0 5 -4 13 -10 16 -5
3 -10 2 -10 -4z"/>
<path d="M2482 998 c5 -15 28 -23 28 -10 0 5 -7 13 -16 16 -10 4 -14 1 -12 -6z"/>
<path d="M1920 980 c19 -13 30 -13 30 0 0 6 -10 10 -22 10 -19 0 -20 -2 -8
-10z"/>
<path d="M2105 979 c-4 -6 -4 -13 0 -17 4 -4 10 -2 12 5 2 7 11 9 20 6 11 -4
14 -2 9 5 -9 15 -33 16 -41 1z"/>
<path d="M2840 956 c0 -8 5 -18 10 -21 6 -3 10 1 10 9 0 8 -4 18 -10 21 -5 3
-10 -1 -10 -9z"/>
<path d="M2583 953 c-22 -9 -14 -18 18 -20 20 -2 29 2 26 10 -4 13 -25 18 -44
10z"/>
<path d="M2030 931 c0 -5 8 -8 18 -7 9 0 16 -5 15 -11 -2 -7 2 -13 7 -13 6 0
10 9 10 20 0 15 -7 20 -25 20 -14 0 -25 -4 -25 -9z"/>
<path d="M2744 905 c-3 -8 -4 -20 -1 -27 3 -7 6 -2 6 11 1 20 5 23 31 19 17
-3 30 -1 30 4 0 14 -60 9 -66 -7z"/>
<path d="M2366 902 c-7 -12 22 -38 31 -28 4 3 0 14 -9 22 -9 10 -18 12 -22 6z"/>
<path d="M2849 893 c-1 -10 -2 -44 -3 -76 -1 -49 1 -55 12 -40 8 11 11 30 7
48 -3 17 -5 42 -5 58 0 29 -9 38 -11 10z"/>
<path d="M1910 890 c0 -5 7 -7 15 -4 8 4 15 8 15 10 0 2 -7 4 -15 4 -8 0 -15
-4 -15 -10z"/>
<path d="M1776 863 c9 -37 14 -44 25 -38 15 10 10 52 -7 59 -24 9 -25 8 -18
-21z"/>
<path d="M2258 863 c5 -21 7 -23 10 -9 2 10 0 22 -6 28 -6 6 -7 0 -4 -19z"/>
<path d="M2560 872 c0 -12 19 -26 26 -19 2 2 -2 10 -11 17 -9 8 -15 8 -15 2z"/>
<path d="M2160 850 c0 -6 7 -10 15 -10 8 0 15 2 15 4 0 2 -7 6 -15 10 -8 3
-15 1 -15 -4z"/>
<path d="M2680 825 c-19 -22 -8 -25 13 -3 9 10 13 18 8 18 -5 0 -14 -7 -21
-15z"/>
<path d="M1890 810 c0 -5 5 -10 11 -10 5 0 7 5 4 10 -3 6 -8 10 -11 10 -2 0
-4 -4 -4 -10z"/>
<path d="M2753 813 c-7 -3 -13 -12 -13 -21 0 -11 3 -13 8 -6 4 7 16 13 27 16
15 3 17 5 5 9 -8 3 -21 4 -27 2z"/>
<path d="M1965 799 c-4 -6 -4 -13 -1 -16 3 -4 6 -1 6 6 0 8 8 11 20 8 11 -3
20 -1 20 4 0 13 -37 11 -45 -2z"/>
<path d="M1748 734 c3 -22 8 -32 14 -26 5 5 5 19 -1 35 -14 37 -18 34 -13 -9z"/>
<path d="M1815 760 c3 -5 11 -10 16 -10 6 0 7 5 4 10 -3 6 -11 10 -16 10 -6 0
-7 -4 -4 -10z"/>
<path d="M2253 757 c-12 -5 -25 -17 -28 -26 -5 -13 -4 -14 6 -3 7 6 26 12 41
12 15 0 28 4 28 9 0 15 -24 19 -47 8z"/>
<path d="M2535 740 c-3 -5 -1 -10 5 -10 7 0 23 -9 37 -20 25 -19 43 -19 43 1
0 5 -7 9 -16 9 -8 0 -22 7 -30 15 -18 17 -30 19 -39 5z"/>
<path d="M2060 730 c0 -5 5 -10 11 -10 5 0 7 5 4 10 -3 6 -8 10 -11 10 -2 0
-4 -4 -4 -10z"/>
<path d="M2688 733 c6 -2 18 -2 25 0 6 3 1 5 -13 5 -14 0 -19 -2 -12 -5z"/>
<path d="M2744 726 c-11 -8 -15 -18 -10 -23 5 -4 11 -2 13 5 3 6 16 12 29 12
13 0 24 5 24 10 0 15 -33 12 -56 -4z"/>
<path d="M1800 715 c0 -8 4 -15 10 -15 5 0 7 7 4 15 -4 8 -8 15 -10 15 -2 0
-4 -7 -4 -15z"/>
<path d="M2640 710 c0 -5 5 -10 11 -10 5 0 7 5 4 10 -3 6 -8 10 -11 10 -2 0
-4 -4 -4 -10z"/>
<path d="M2522 691 c-10 -6 -10 -13 2 -35 16 -32 25 -23 17 16 -4 19 -10 25
-19 19z"/>
<path d="M1895 666 c12 -8 16 -20 12 -35 -6 -24 8 -29 17 -5 8 21 -11 54 -31
54 -15 0 -14 -2 2 -14z"/>
<path d="M1776 646 c8 -14 25 -26 37 -28 15 -2 26 -14 33 -37 6 -19 14 -29 18
-23 10 16 -11 60 -32 66 -11 4 -27 15 -37 26 -25 28 -39 25 -19 -4z"/>
<path d="M1976 625 c25 -19 40 -19 24 0 -7 8 -20 15 -28 15 -13 0 -12 -3 4
-15z"/>
<path d="M2248 615 c-4 -17 -1 -34 7 -42 18 -17 26 -17 19 2 -7 17 31 22 41 5
3 -5 11 -10 17 -10 7 0 6 6 -2 15 -7 8 -23 15 -37 15 -15 0 -26 8 -32 22 -8
21 -8 21 -13 -7z"/>
<path d="M2751 626 c-8 -9 -8 -16 -2 -20 5 -4 13 -1 17 5 5 8 9 8 14 -1 10
-17 31 -3 23 15 -7 19 -37 19 -52 1z"/>
<path d="M2115 620 c-3 -5 3 -10 14 -10 12 0 21 5 21 10 0 6 -6 10 -14 10 -8
0 -18 -4 -21 -10z"/>
<path d="M2420 595 c7 -9 15 -13 17 -11 7 7 -7 26 -19 26 -6 0 -6 -6 2 -15z"/>
<path d="M2157 583 c-13 -13 -7 -25 7 -14 15 13 49 4 40 -10 -3 -5 0 -9 5 -9
6 0 11 9 11 20 0 15 -7 20 -28 20 -16 0 -32 -3 -35 -7z"/>
<path d="M1996 564 c-17 -12 -17 -14 -4 -14 9 0 20 5 23 11 11 17 2 18 -19 3z"/>
<path d="M1555 644 l-30 -26 33 22 c17 12 32 23 32 26 0 7 -4 5 -35 -22z"/>
<path d="M4567 463 c-20 -5 -18 -24 3 -31 7 -3 10 0 6 7 -4 6 2 15 16 20 24
10 7 12 -25 4z"/>
<path d="M7696 442 c-76 -14 -134 -28 -128 -30 10 -3 295 44 317 53 30 11 -67
-1 -189 -23z"/>
<path d="M8778 463 c6 -2 18 -2 25 0 6 3 1 5 -13 5 -14 0 -19 -2 -12 -5z"/>
<path d="M9328 463 c12 -2 32 -2 45 0 12 2 2 4 -23 4 -25 0 -35 -2 -22 -4z"/>
<path d="M10268 463 c12 -2 32 -2 45 0 12 2 2 4 -23 4 -25 0 -35 -2 -22 -4z"/>
<path d="M10418 463 c7 -3 16 -2 19 1 4 3 -2 6 -13 5 -11 0 -14 -3 -6 -6z"/>
<path d="M1143 453 c9 -2 23 -2 30 0 6 3 -1 5 -18 5 -16 0 -22 -2 -12 -5z"/>
<path d="M4810 445 c0 -8 4 -15 10 -15 5 0 7 7 4 15 -4 8 -8 15 -10 15 -2 0
-4 -7 -4 -15z"/>
<path d="M8608 453 c7 -3 16 -2 19 1 4 3 -2 6 -13 5 -11 0 -14 -3 -6 -6z"/>
<path d="M8718 453 c6 -2 18 -2 25 0 6 3 1 5 -13 5 -14 0 -19 -2 -12 -5z"/>
<path d="M9770 451 c-14 -4 27 -6 90 -4 151 5 172 11 40 11 -58 0 -116 -3
-130 -7z"/>
<path d="M4294 435 c-25 -19 -15 -19 27 0 25 10 29 14 13 15 -11 0 -29 -7 -40
-15z"/>
<path d="M5017 443 c-14 -14 17 -33 52 -32 26 1 29 3 11 6 -48 8 -56 13 -40
23 13 8 13 10 -1 10 -9 0 -19 -3 -22 -7z"/>
<path d="M5143 443 c9 -2 23 -2 30 0 6 3 -1 5 -18 5 -16 0 -22 -2 -12 -5z"/>
<path d="M6248 443 c12 -2 30 -2 40 0 9 3 -1 5 -23 4 -22 0 -30 -2 -17 -4z"/>
<path d="M7498 443 c7 -3 16 -2 19 1 4 3 -2 6 -13 5 -11 0 -14 -3 -6 -6z"/>
<path d="M8530 440 c-20 -6 -21 -8 -5 -8 11 0 31 4 45 8 20 6 21 8 5 8 -11 0
-31 -4 -45 -8z"/>
<path d="M8658 443 c7 -3 16 -2 19 1 4 3 -2 6 -13 5 -11 0 -14 -3 -6 -6z"/>
<path d="M5205 431 c11 -4 36 -11 55 -15 24 -4 29 -3 15 3 -11 4 -36 11 -55
15 -24 4 -29 3 -15 -3z"/>
<path d="M6788 433 c34 -2 88 -2 120 0 31 2 3 3 -63 3 -66 0 -92 -1 -57 -3z"/>
<path d="M8608 433 c7 -3 16 -2 19 1 4 3 -2 6 -13 5 -11 0 -14 -3 -6 -6z"/>
<path d="M1528 423 c6 -2 18 -2 25 0 6 3 1 5 -13 5 -14 0 -19 -2 -12 -5z"/>
<path d="M4858 418 c6 -6 18 -8 28 -6 14 3 12 5 -9 10 -19 3 -25 2 -19 -4z"/>
<path d="M8478 423 c7 -3 16 -2 19 1 4 3 -2 6 -13 5 -11 0 -14 -3 -6 -6z"/>
<path d="M10403 423 c9 -2 25 -2 35 0 9 3 1 5 -18 5 -19 0 -27 -2 -17 -5z"/>
<path d="M8428 413 c7 -3 16 -2 19 1 4 3 -2 6 -13 5 -11 0 -14 -3 -6 -6z"/>
<path d="M3259 303 c-13 -16 -12 -17 4 -4 16 13 21 21 13 21 -2 0 -10 -8 -17
-17z"/>
<path d="M10035 300 c-3 -6 1 -7 9 -4 18 7 21 14 7 14 -6 0 -13 -4 -16 -10z"/>
</g>
</svg>
